<?xml version="1.0" encoding="UTF-8"?><svg id="b" xmlns="http://www.w3.org/2000/svg" xmlns:xlink="http://www.w3.org/1999/xlink" viewBox="0 0 1868.4 1177"><defs><style>.j{fill:#585856;}.k{fill:#f5f5f5;}.l{clip-path:url(#g);}.m{fill:#71706f;}.n{clip-path:url(#d);}.o{clip-path:url(#i);}.p{clip-path:url(#e);}.q{clip-path:url(#f);}.r{fill:none;}.s{opacity:.1;}.t{fill:#b1b1b1;}.u{clip-path:url(#h);}.v{fill:#edecec;}</style><clipPath id="d"><polygon class="r" points="907.1 769.6 990.7 173.5 291.4 102.6 207.7 698.7 907.1 769.6"/></clipPath><clipPath id="e"><polygon class="r" points="741.2 589.9 705.1 847.6 1007.4 878.2 1043.5 620.5 741.2 589.9"/></clipPath><clipPath id="f"><rect class="r" x="85" y="770.1" width="522.4" height="407"/></clipPath><clipPath id="g"><rect class="r" y="703.8" width="225.8" height="175.9"/></clipPath><clipPath id="h"><polygon class="r" points="1530.3 668.8 1606.6 72.5 978.7 0 902.4 596.3 1530.3 668.8"/></clipPath><clipPath id="i"><polygon class="r" points="1381.7 488.6 1348.7 746.3 1620.1 777.6 1653.1 519.9 1381.7 488.6"/></clipPath></defs><g id="c"><g class="s"><g><g class="n"><g><g><polygon class="j" points="346.7 109.5 429.4 76.6 418 158 346.7 109.5"/><polygon class="t" points="420.1 254 502.8 221.1 491.4 302.6 420.1 254"/><polygon class="v" points="507.1 309.6 589.9 276.7 578.4 358.1 507.1 309.6"/><polygon class="k" points="321.3 290.3 404 257.3 392.6 338.8 321.3 290.3"/><polygon class="v" points="208.7 418.9 291.4 386.1 280 467.5 208.7 418.9"/><polygon class="v" points="623.3 182.7 706.1 149.8 694.6 231.3 623.3 182.7"/><polygon class="v" points="487.2 307 404.5 340 415.9 258.5 487.2 307"/><polygon class="v" points="572.2 363.1 489.4 396.1 500.8 314.6 572.2 363.1"/><polygon class="m" points="583.3 270.9 500.6 303.8 512 222.3 583.3 270.9"/><polygon class="v" points="772 291 689.3 323.9 700.7 242.5 772 291"/><polygon class="j" points="685.5 236 602.7 268.9 614.1 187.5 685.5 236"/><polygon class="v" points="647.9 507.4 565.2 540.4 576.6 458.9 647.9 507.4"/><polygon class="m" points="300.1 289.4 217.4 322.3 228.8 240.8 300.1 289.4"/><polygon class="t" points="598.7 180.7 416.5 249.8 440.7 77.2 598.7 180.7"/><polygon class="m" points="473.7 397.8 291.4 466.9 315.7 294.3 473.7 397.8"/><polygon class="k" points="397.2 436.9 579.5 367.8 555.3 540.4 397.2 436.9"/><polygon class="v" points="185 254 220 240 215.1 274.5 185 254"/><polygon class="v" points="569.4 201 604.4 187.1 599.5 221.6 569.4 201"/><polygon class="v" points="563 246.3 598 232.4 593.2 266.9 563 246.3"/><polygon class="v" points="519 220 554 206.1 549.1 240.5 519 220"/><polygon class="v" points="405.9 345.7 440.9 331.7 436.1 366.2 405.9 345.7"/><polygon class="v" points="458.1 326.1 493.2 312.2 488.3 346.6 458.1 326.1"/><polygon class="v" points="451.7 372.1 486.7 358.2 481.9 392.7 451.7 372.1"/><polygon class="v" points="221.1 327.7 256.1 313.8 251.2 348.2 221.1 327.7"/><polygon class="v" points="272.3 308.8 307.3 294.8 302.4 329.3 272.3 308.8"/><polygon class="v" points="265.9 354.1 300.9 340.1 296.1 374.6 265.9 354.1"/><polygon class="v" points="608.1 273.2 643.2 259.3 638.3 293.8 608.1 273.2"/><polygon class="v" points="655.3 255.9 690.3 242 685.5 276.5 655.3 255.9"/><polygon class="v" points="649 301 684 287.1 679.2 321.5 649 301"/><polygon class="v" points="710.5 190.7 745.4 176.8 740.6 211.3 710.5 190.7"/><polygon class="v" points="743.2 310.1 778.2 296.1 773.4 330.6 743.2 310.1"/><polygon class="k" points="593.1 226.4 558.1 240.3 562.9 205.9 593.1 226.4"/><polygon class="v" points="480.6 354.4 445.6 368.3 450.4 333.8 480.6 354.4"/><polygon class="v" points="296.9 334.2 261.9 348.2 266.8 313.7 296.9 334.2"/><polygon class="v" points="419.7 461.2 384.6 475.1 389.5 440.7 419.7 461.2"/><polygon class="v" points="682.6 281.6 647.6 295.6 652.4 261.1 682.6 281.6"/><polygon class="v" points="610.8 440.7 575.8 454.6 580.6 420.1 610.8 440.7"/><polygon class="m" points="738.6 218 703.6 232 708.4 197.5 738.6 218"/></g><g><polygon class="v" points="590.9 367.3 673.7 334.4 662.3 415.9 590.9 367.3"/><polygon class="v" points="664.3 511.9 747.1 478.9 735.7 560.5 664.3 511.9"/><polygon class="v" points="751.4 567.4 834.2 534.5 822.8 615.9 751.4 567.4"/><polygon class="v" points="565.6 548.1 648.4 515.1 636.9 596.6 565.6 548.1"/><polygon class="k" points="731.5 564.9 648.8 597.8 660.2 516.3 731.5 564.9"/><polygon class="v" points="1016.3 548.8 933.5 581.7 945 500.2 1016.3 548.8"/><polygon class="j" points="544.5 547.1 461.7 580.1 473.1 498.6 544.5 547.1"/><polygon class="v" points="429.3 511.8 464.3 497.8 459.4 532.3 429.3 511.8"/><polygon class="v" points="813.7 458.8 848.7 444.9 843.8 479.4 813.7 458.8"/><polygon class="v" points="807.3 504.1 842.3 490.2 837.5 524.7 807.3 504.1"/><polygon class="v" points="763.2 477.8 798.3 463.9 793.5 498.4 763.2 477.8"/><polygon class="v" points="650.2 603.4 685.2 589.6 680.4 624 650.2 603.4"/><polygon class="v" points="702.4 583.9 737.4 570 732.6 604.4 702.4 583.9"/><polygon class="v" points="696 630 731 616 726.1 650.5 696 630"/><polygon class="v" points="465.3 585.5 500.4 571.6 495.5 606 465.3 585.5"/><polygon class="v" points="516.6 566.6 551.6 552.6 546.8 587.1 516.6 566.6"/><polygon class="v" points="510.2 611.9 545.2 598 540.4 632.4 510.2 611.9"/><polygon class="v" points="852.4 531 887.4 517.1 882.6 551.6 852.4 531"/><polygon class="v" points="893.3 558.9 928.3 544.9 923.5 579.4 893.3 558.9"/><polygon class="v" points="954.7 448.5 989.7 434.6 984.9 469.1 954.7 448.5"/><polygon class="v" points="987.5 567.9 1022.5 554 1017.7 588.4 987.5 567.9"/><polygon class="v" points="837.4 484.2 802.4 498.1 807.2 463.7 837.4 484.2"/><polygon class="k" points="541.2 592 506.2 606 511.1 571.5 541.2 592"/><polygon class="v" points="663.9 719 628.9 732.9 633.7 698.5 663.9 719"/><polygon class="m" points="926.8 539.5 891.9 553.4 896.7 519 926.8 539.5"/><polygon class="v" points="982.9 475.9 947.8 489.8 952.7 455.3 982.9 475.9"/></g></g></g><g class="p"><g><g><polygon class="j" points="983.4 875.2 947.7 889.4 952.6 854.2 983.4 875.2"/><polygon class="t" points="951.7 812.7 916 826.9 920.9 791.7 951.7 812.7"/><polygon class="v" points="914.1 788.7 878.3 802.9 883.3 767.7 914.1 788.7"/><polygon class="k" points="994.4 797.1 958.7 811.3 963.6 776.1 994.4 797.1"/><polygon class="v" points="1043.1 741.5 1007.3 755.7 1012.2 720.5 1043.1 741.5"/><polygon class="v" points="863.9 843.5 828.1 857.8 833.1 822.6 863.9 843.5"/><polygon class="v" points="922.7 789.8 958.5 775.6 953.5 810.8 922.7 789.8"/><polygon class="v" points="886 765.6 921.8 751.3 916.9 786.6 886 765.6"/><polygon class="m" points="881.2 805.5 916.9 791.2 912 826.5 881.2 805.5"/><polygon class="v" points="799.6 796.8 835.4 782.5 830.5 817.7 799.6 796.8"/><polygon class="j" points="837 820.5 872.8 806.3 867.8 841.5 837 820.5"/><polygon class="v" points="853.3 703.2 889 688.9 884 724.2 853.3 703.2"/><polygon class="m" points="1003.6 797.5 1039.3 783.2 1034.4 818.4 1003.6 797.5"/><polygon class="t" points="874.5 844.4 953.3 814.5 942.8 889.1 874.5 844.4"/><polygon class="m" points="928.5 750.6 1007.3 720.7 996.9 795.3 928.5 750.6"/><polygon class="k" points="961.6 733.7 882.8 763.6 893.3 689 961.6 733.7"/><polygon class="v" points="1053.3 812.8 1038.2 818.8 1040.3 803.9 1053.3 812.8"/><polygon class="v" points="887.2 835.6 872.1 841.7 874.2 826.7 887.2 835.6"/><polygon class="v" points="890 816 874.8 822.1 876.9 807.2 890 816"/><polygon class="v" points="909 827.4 893.8 833.5 895.9 818.6 909 827.4"/><polygon class="v" points="957.9 773.1 942.7 779.1 944.8 764.3 957.9 773.1"/><polygon class="v" points="935.3 781.6 920.1 787.6 922.2 772.7 935.3 781.6"/><polygon class="v" points="938.1 761.7 922.9 767.7 925 752.8 938.1 761.7"/><polygon class="v" points="1037.7 780.9 1022.6 786.9 1024.7 772 1037.7 780.9"/><polygon class="v" points="1015.6 789.1 1000.5 795.1 1002.6 780.2 1015.6 789.1"/><polygon class="v" points="1018.4 769.5 1003.2 775.5 1005.3 760.6 1018.4 769.5"/><polygon class="v" points="870.5 804.4 855.3 810.4 857.4 795.5 870.5 804.4"/><polygon class="v" points="850.1 811.9 834.9 817.9 837 803 850.1 811.9"/><polygon class="v" points="852.8 792.4 837.6 798.4 839.7 783.5 852.8 792.4"/><polygon class="v" points="826.2 840.1 811.1 846.1 813.2 831.2 826.2 840.1"/><polygon class="v" points="812.1 788.5 797 794.6 799.1 779.6 812.1 788.5"/><polygon class="k" points="877 824.7 892.1 818.7 890 833.6 877 824.7"/><polygon class="v" points="925.6 769.3 940.7 763.3 938.6 778.2 925.6 769.3"/><polygon class="v" points="1004.9 778 1020.1 772 1018 786.9 1004.9 778"/><polygon class="v" points="951.9 723.2 967.1 717.2 965 732.1 951.9 723.2"/><polygon class="v" points="838.2 800.8 853.4 794.8 851.3 809.7 838.2 800.8"/><polygon class="v" points="869.3 732.1 884.4 726.1 882.3 740.9 869.3 732.1"/><polygon class="m" points="814.1 828.3 829.2 822.3 827.1 837.2 814.1 828.3"/></g><g><polygon class="v" points="877.9 763.8 842.1 778 847.1 742.8 877.9 763.8"/><polygon class="v" points="846.1 701.3 810.4 715.5 815.3 680.3 846.1 701.3"/><polygon class="v" points="808.5 677.3 772.8 691.5 777.7 656.3 808.5 677.3"/><polygon class="v" points="888.8 685.6 853.1 699.9 858 664.7 888.8 685.6"/><polygon class="k" points="817.1 678.4 852.9 664.2 848 699.4 817.1 678.4"/><polygon class="v" points="694.1 685.3 729.8 671.1 724.9 706.3 694.1 685.3"/><polygon class="j" points="898 686.1 933.8 671.8 928.8 707 898 686.1"/><polygon class="v" points="947.8 701.3 932.6 707.4 934.7 692.4 947.8 701.3"/><polygon class="v" points="781.6 724.2 766.5 730.2 768.6 715.4 781.6 724.2"/><polygon class="v" points="784.4 704.7 769.2 710.6 771.3 695.8 784.4 704.7"/><polygon class="v" points="803.4 716 788.3 722 790.4 707.1 803.4 716"/><polygon class="v" points="852.3 661.7 837.1 667.7 839.2 652.8 852.3 661.7"/><polygon class="v" points="829.7 670.1 814.5 676.2 816.6 661.3 829.7 670.1"/><polygon class="v" points="832.5 650.3 817.3 656.3 819.4 641.4 832.5 650.3"/><polygon class="v" points="932.2 669.4 917 675.5 919.1 660.6 932.2 669.4"/><polygon class="v" points="910 677.7 894.9 683.7 897 668.8 910 677.7"/><polygon class="v" points="912.8 658.1 897.6 664.1 899.7 649.2 912.8 658.1"/><polygon class="v" points="764.9 693 749.7 699.1 751.8 684.1 764.9 693"/><polygon class="v" points="747.2 681 732.1 687 734.2 672.1 747.2 681"/><polygon class="v" points="720.6 728.7 705.5 734.7 707.6 719.8 720.6 728.7"/><polygon class="v" points="706.5 677.1 691.4 683.1 693.5 668.2 706.5 677.1"/><polygon class="v" points="771.4 713.3 786.5 707.2 784.4 722.1 771.4 713.3"/><polygon class="k" points="899.4 666.7 914.5 660.6 912.4 675.5 899.4 666.7"/><polygon class="v" points="846.3 611.8 861.5 605.7 859.4 620.6 846.3 611.8"/><polygon class="m" points="732.7 689.4 747.8 683.3 745.7 698.2 732.7 689.4"/><polygon class="v" points="763.7 620.7 778.8 614.6 776.8 629.5 763.7 620.7"/><polygon class="v" points="708.5 716.8 723.6 710.9 721.5 725.7 708.5 716.8"/></g></g></g></g></g><g class="s"><g><g class="q"><g><g><polygon class="j" points="606.2 1144.7 641.9 1099.9 570.6 1099.9 606.2 1144.7"/><polygon class="t" points="487.8 1091 523.5 1046.1 452.1 1046.1 487.8 1091"/><polygon class="v" points="447.4 1036.5 483.1 991.7 411.7 991.7 447.4 1036.5"/><polygon class="k" points="447.9 1144.7 483.5 1099.9 412.2 1099.9 447.9 1144.7"/><polygon class="v" points="326.8 1199 362.5 1154.1 291.1 1154.1 326.8 1199"/><polygon class="v" points="567.2 980.1 602.9 935.3 531.5 935.3 567.2 980.1"/><polygon class="v" points="447.9 1048.2 412.2 1093 483.5 1093 447.9 1048.2"/><polygon class="v" points="406.9 994.9 371.2 1039.8 442.6 1039.8 406.9 994.9"/><polygon class="m" points="487.6 996 451.9 1040.8 523.2 1040.8 487.6 996"/><polygon class="v" points="486.7 886.1 451 930.9 522.4 930.9 486.7 886.1"/><polygon class="j" points="526.6 940.2 490.9 985 562.3 985 526.6 940.2"/><polygon class="v" points="288.8 939.8 253.1 984.7 324.5 984.7 288.8 939.8"/><polygon class="m" points="446.8 1157 411.1 1201.8 482.5 1201.8 446.8 1157"/><polygon class="t" points="566.8 994.4 491.2 1093.4 642.4 1093.4 566.8 994.4"/><polygon class="m" points="368.3 1048.6 292.6 1147.6 443.9 1147.6 368.3 1048.6"/><polygon class="k" points="327.9 1089.4 403.5 990.3 252.3 990.3 327.9 1089.4"/><polygon class="v" points="546.7 1009.6 561.8 990.6 531.6 990.6 546.7 1009.6"/><polygon class="v" points="507 1009.6 522.1 990.6 491.9 990.6 507 1009.6"/><polygon class="v" points="525.8 1037 541 1018 510.8 1018 525.8 1037"/><polygon class="v" points="407.4 1091.7 422.5 1072.8 392.3 1072.8 407.4 1091.7"/><polygon class="v" points="428.9 1063.4 444 1044.4 413.8 1044.4 428.9 1063.4"/><polygon class="v" points="388.5 1063.4 403.6 1044.4 373.4 1044.4 388.5 1063.4"/><polygon class="v" points="427.6 1171.4 442.7 1152.4 412.5 1152.4 427.6 1171.4"/><polygon class="v" points="387.9 1171.4 403 1152.4 372.8 1152.4 387.9 1171.4"/><polygon class="v" points="487.7 981.6 502.8 962.6 472.6 962.6 487.7 981.6"/><polygon class="v" points="506.8 955.9 521.9 936.9 491.7 936.9 506.8 955.9"/><polygon class="v" points="467.3 955.9 482.4 936.9 452.2 936.9 467.3 955.9"/><polygon class="v" points="567.9 929.5 583 910.5 552.8 910.5 567.9 929.5"/><polygon class="v" points="467.7 901.1 482.8 882.1 452.6 882.1 467.7 901.1"/><polygon class="k" points="526.8 993.9 511.7 1012.9 541.9 1012.9 526.8 993.9"/><polygon class="v" points="406.4 1048.2 391.3 1067.2 421.5 1067.2 406.4 1048.2"/><polygon class="v" points="407.7 1155.2 392.6 1174.1 422.8 1174.1 407.7 1155.2"/><polygon class="v" points="308.8 1074.5 293.7 1093.5 323.9 1093.5 308.8 1074.5"/><polygon class="v" points="486.9 938.1 471.8 957.1 502 957.1 486.9 938.1"/><polygon class="v" points="343.3 966.5 328.2 985.5 358.4 985.5 343.3 966.5"/><polygon class="m" points="546.8 911.1 531.7 930.1 561.9 930.1 546.8 911.1"/></g><g><polygon class="v" points="404.9 983.8 440.6 939 369.2 939 404.9 983.8"/><polygon class="v" points="286.4 930.1 322.1 885.2 250.7 885.2 286.4 930.1"/><polygon class="v" points="246.1 875.6 281.8 830.8 210.4 830.8 246.1 875.6"/><polygon class="v" points="246.5 983.8 282.2 939 210.9 939 246.5 983.8"/><polygon class="k" points="246.5 887.3 210.9 932.1 282.2 932.1 246.5 887.3"/><polygon class="v" points="285.4 725.2 249.7 770 321.1 770 285.4 725.2"/><polygon class="j" points="245.5 996 209.7 1040.9 281.1 1040.9 245.5 996"/><polygon class="v" points="265.9 1064.9 281 1046 250.9 1046 265.9 1064.9"/><polygon class="v" points="345.4 848.7 360.4 829.7 330.2 829.7 345.4 848.7"/><polygon class="v" points="305.6 848.7 320.7 829.7 290.6 829.7 305.6 848.7"/><polygon class="v" points="324.5 876.1 339.6 857.1 309.4 857.1 324.5 876.1"/><polygon class="v" points="206.1 930.8 221.1 911.9 191 911.9 206.1 930.8"/><polygon class="v" points="227.5 902.4 242.6 883.5 212.4 883.5 227.5 902.4"/><polygon class="v" points="187.2 902.4 202.3 883.5 172.1 883.5 187.2 902.4"/><polygon class="v" points="205.4 1038.3 220.5 1019.4 190.3 1019.4 205.4 1038.3"/><polygon class="v" points="226.2 1010.4 241.3 991.5 211.1 991.5 226.2 1010.4"/><polygon class="v" points="186.5 1010.4 201.6 991.5 171.4 991.5 186.5 1010.4"/><polygon class="v" points="286.4 820.6 301.4 801.7 271.2 801.7 286.4 820.6"/><polygon class="v" points="265.9 794.9 281 776 250.8 776 265.9 794.9"/><polygon class="v" points="366.6 768.6 381.7 749.6 351.5 749.6 366.6 768.6"/><polygon class="v" points="266.4 740.2 281.4 721.2 251.3 721.2 266.4 740.2"/><polygon class="v" points="325.5 833 310.4 852 340.6 852 325.5 833"/><polygon class="k" points="206.4 994.3 191.3 1013.2 221.5 1013.2 206.4 994.3"/><polygon class="v" points="107.5 913.6 92.3 932.6 122.5 932.6 107.5 913.6"/><polygon class="m" points="285.6 777.3 270.5 796.2 300.7 796.2 285.6 777.3"/><polygon class="v" points="345.5 750.2 330.3 769.2 360.5 769.2 345.5 750.2"/></g></g></g><g class="l"><g><g><polygon class="j" points=".5 717.8 -14.9 737.1 15.9 737.1 .5 717.8"/><polygon class="t" points="51.7 741 36.3 760.4 67.1 760.4 51.7 741"/><polygon class="v" points="69.1 764.5 53.7 783.9 84.6 783.9 69.1 764.5"/><polygon class="k" points="68.9 717.8 53.5 737.1 84.4 737.1 68.9 717.8"/><polygon class="v" points="121.3 694.3 105.9 713.7 136.7 713.7 121.3 694.3"/><polygon class="v" points="17.4 788.9 1.9 808.3 32.8 808.3 17.4 788.9"/><polygon class="v" points="68.9 759.5 84.4 740.1 53.5 740.1 68.9 759.5"/><polygon class="v" points="86.6 782.5 102.1 763.1 71.2 763.1 86.6 782.5"/><polygon class="m" points="51.8 782 67.2 762.7 36.3 762.7 51.8 782"/><polygon class="v" points="52.2 829.5 67.6 810.2 36.7 810.2 52.2 829.5"/><polygon class="j" points="34.9 806.2 50.3 786.8 19.5 786.8 34.9 806.2"/><polygon class="v" points="137.7 806.3 153.1 786.9 122.3 786.9 137.7 806.3"/><polygon class="m" points="69.4 712.5 84.8 693.1 54 693.1 69.4 712.5"/><polygon class="t" points="17.6 782.7 50.3 740 -15.1 740 17.6 782.7"/><polygon class="m" points="103.4 759.3 136 716.5 70.7 716.5 103.4 759.3"/><polygon class="k" points="120.8 741.7 88.1 784.5 153.5 784.5 120.8 741.7"/><polygon class="v" points="60.6 682.7 54 690.9 67.1 690.9 60.6 682.7"/><polygon class="v" points="26.2 776.2 19.7 784.4 32.8 784.4 26.2 776.2"/><polygon class="v" points="43.4 776.2 36.9 784.4 49.9 784.4 43.4 776.2"/><polygon class="v" points="35.3 764.3 28.7 772.5 41.8 772.5 35.3 764.3"/><polygon class="v" points="86.4 740.7 79.9 748.9 93 748.9 86.4 740.7"/><polygon class="v" points="77.2 752.9 70.6 761.1 83.7 761.1 77.2 752.9"/><polygon class="v" points="94.6 752.9 88.1 761.1 101.1 761.1 94.6 752.9"/><polygon class="v" points="86.7 694.2 80.2 702.4 93.2 702.4 86.7 694.2"/><polygon class="v" points="77.7 706.2 71.2 714.4 84.3 714.4 77.7 706.2"/><polygon class="v" points="94.9 706.2 88.4 714.4 101.4 714.4 94.9 706.2"/><polygon class="v" points="51.7 788.3 45.2 796.5 58.3 796.5 51.7 788.3"/><polygon class="v" points="43.5 799.4 37 807.6 50 807.6 43.5 799.4"/><polygon class="v" points="60.6 799.4 54 807.6 67.1 807.6 60.6 799.4"/><polygon class="v" points="17.1 810.8 10.5 819 23.6 819 17.1 810.8"/><polygon class="v" points="60.4 823.1 53.8 831.2 66.9 831.2 60.4 823.1"/><polygon class="k" points="34.8 782.9 41.3 774.7 28.3 774.7 34.8 782.9"/><polygon class="v" points="86.9 759.5 93.4 751.3 80.3 751.3 86.9 759.5"/><polygon class="v" points="86.3 713.2 92.8 705.1 79.8 705.1 86.3 713.2"/><polygon class="v" points="129 748.1 135.6 739.9 122.5 739.9 129 748.1"/><polygon class="v" points="52.1 807.1 58.6 798.8 45.5 798.8 52.1 807.1"/><polygon class="v" points="114.1 794.7 120.7 786.6 107.6 786.6 114.1 794.7"/><polygon class="m" points="26.2 818.7 32.7 810.5 19.7 810.5 26.2 818.7"/></g><g><polygon class="v" points="87.5 787.3 72.1 806.7 102.9 806.7 87.5 787.3"/><polygon class="v" points="138.7 810.5 123.3 829.9 154.2 829.9 138.7 810.5"/><polygon class="v" points="156.2 834 140.7 853.4 171.6 853.4 156.2 834"/><polygon class="v" points="156 787.3 140.5 806.7 171.4 806.7 156 787.3"/><polygon class="k" points="156 829 171.4 809.6 140.5 809.6 156 829"/><polygon class="v" points="139.2 899.1 154.6 879.7 123.8 879.7 139.2 899.1"/><polygon class="j" points="156.4 782 171.9 762.6 141 762.6 156.4 782"/><polygon class="v" points="147.6 752.2 141 760.4 154.1 760.4 147.6 752.2"/><polygon class="v" points="113.2 845.7 106.7 853.9 119.8 853.9 113.2 845.7"/><polygon class="v" points="130.4 845.7 123.9 853.9 136.9 853.9 130.4 845.7"/><polygon class="v" points="122.3 833.9 115.7 842.1 128.8 842.1 122.3 833.9"/><polygon class="v" points="173.4 810.2 166.9 818.4 180 818.4 173.4 810.2"/><polygon class="v" points="164.2 822.5 157.6 830.7 170.7 830.7 164.2 822.5"/><polygon class="v" points="181.6 822.5 175.1 830.7 188.2 830.7 181.6 822.5"/><polygon class="v" points="173.8 763.7 167.2 771.9 180.2 771.9 173.8 763.7"/><polygon class="v" points="164.7 775.8 158.2 784 171.3 784 164.7 775.8"/><polygon class="v" points="181.9 775.8 175.4 784 188.4 784 181.9 775.8"/><polygon class="v" points="138.8 857.8 132.2 866 145.3 866 138.8 857.8"/><polygon class="v" points="147.6 868.9 141 877.1 154.1 877.1 147.6 868.9"/><polygon class="v" points="104.1 880.3 97.5 888.5 110.6 888.5 104.1 880.3"/><polygon class="v" points="147.4 892.6 140.9 900.8 153.9 900.8 147.4 892.6"/><polygon class="v" points="121.8 852.5 128.4 844.3 115.3 844.3 121.8 852.5"/><polygon class="k" points="173.3 782.8 179.8 774.6 166.8 774.6 173.3 782.8"/><polygon class="v" points="216.1 817.6 222.6 809.4 209.6 809.4 216.1 817.6"/><polygon class="m" points="139.1 876.6 145.6 868.4 132.6 868.4 139.1 876.6"/><polygon class="v" points="201.2 864.3 207.7 856.1 194.7 856.1 201.2 864.3"/><polygon class="v" points="113.2 888.3 119.7 880.1 106.7 880.1 113.2 888.3"/></g></g></g></g></g><g class="s"><g><g class="u"><g><g><polygon class="j" points="1028.4 7.1 1102.7 -25.7 1092.3 55.8 1028.4 7.1"/><polygon class="t" points="1094 151.9 1168.4 119.1 1158 200.6 1094 151.9"/><polygon class="v" points="1172.1 207.6 1246.4 174.9 1236 256.4 1172.1 207.6"/><polygon class="k" points="1005.2 187.9 1079.6 155.1 1069.2 236.6 1005.2 187.9"/><polygon class="v" points="903.8 316.4 978.2 283.7 967.8 365.1 903.8 316.4"/><polygon class="v" points="1276.7 81 1351.1 48.2 1340.6 129.7 1276.7 81"/><polygon class="v" points="1154.2 205 1079.8 237.8 1090.3 156.3 1154.2 205"/><polygon class="v" points="1230.4 261.3 1155.9 294.1 1166.4 212.6 1230.4 261.3"/><polygon class="m" points="1240.6 169 1166.2 201.8 1176.6 120.3 1240.6 169"/><polygon class="v" points="1410 189.6 1335.6 222.3 1346 140.9 1410 189.6"/><polygon class="j" points="1332.4 134.4 1258 167.2 1268.4 85.7 1332.4 134.4"/><polygon class="v" points="1298.1 405.9 1223.8 438.7 1234.2 357.2 1298.1 405.9"/><polygon class="m" points="986.2 186.9 911.8 219.7 922.3 138.2 986.2 186.9"/><polygon class="t" points="1254.6 78.9 1090.8 147.6 1112.9 -25 1254.6 78.9"/><polygon class="m" points="1141.9 295.8 978.1 364.5 1000.2 191.9 1141.9 295.8"/><polygon class="k" points="1073.1 334.7 1237 266 1214.9 438.6 1073.1 334.7"/><polygon class="v" points="882.9 151.3 914.3 137.4 909.9 171.9 882.9 151.3"/><polygon class="v" points="1228.2 99.1 1259.6 85.3 1255.2 119.8 1228.2 99.1"/><polygon class="v" points="1222.4 144.5 1253.8 130.6 1249.4 165.1 1222.4 144.5"/><polygon class="v" points="1182.9 118 1214.4 104.2 1209.9 138.6 1182.9 118"/><polygon class="v" points="1081.1 243.5 1112.6 229.6 1108.2 264.1 1081.1 243.5"/><polygon class="v" points="1128 224.1 1159.5 210.2 1155.1 244.7 1128 224.1"/><polygon class="v" points="1122.1 270.1 1153.6 256.2 1149.2 290.7 1122.1 270.1"/><polygon class="v" points="915.1 225.1 946.6 211.2 942.2 245.7 915.1 225.1"/><polygon class="v" points="961.2 206.3 992.6 192.4 988.2 226.9 961.2 206.3"/><polygon class="v" points="955.4 251.6 986.8 237.7 982.4 272.2 955.4 251.6"/><polygon class="v" points="1262.8 171.5 1294.3 157.6 1289.9 192.1 1262.8 171.5"/><polygon class="v" points="1305.2 154.3 1336.7 140.4 1332.3 174.9 1305.2 154.3"/><polygon class="v" points="1299.5 199.3 1331 185.5 1326.6 220 1299.5 199.3"/><polygon class="v" points="1354.9 89.1 1386.4 75.3 1381.9 109.8 1354.9 89.1"/><polygon class="v" points="1384.1 208.6 1415.5 194.7 1411.1 229.2 1384.1 208.6"/><polygon class="k" points="1249.5 124.6 1218 138.4 1222.4 104 1249.5 124.6"/><polygon class="v" points="1148.1 252.4 1116.7 266.2 1121.1 231.8 1148.1 252.4"/><polygon class="v" points="983.3 231.8 951.8 245.7 956.2 211.2 983.3 231.8"/><polygon class="v" points="1093.2 359.1 1061.7 373 1066.1 338.5 1093.2 359.1"/><polygon class="v" points="1329.7 180.1 1298.2 193.9 1302.6 159.4 1329.7 180.1"/><polygon class="v" points="1264.9 339 1233.4 352.8 1237.8 318.4 1264.9 339"/><polygon class="m" points="1380.1 116.5 1348.6 130.4 1353.1 95.9 1380.1 116.5"/></g><g><polygon class="v" points="1247.2 265.6 1321.6 232.8 1311.2 314.3 1247.2 265.6"/><polygon class="v" points="1312.8 410.4 1387.2 377.6 1376.8 459.1 1312.8 410.4"/><polygon class="v" points="1390.9 466.1 1465.3 433.4 1454.9 514.8 1390.9 466.1"/><polygon class="v" points="1224.1 446.4 1298.5 413.6 1288 495 1224.1 446.4"/><polygon class="k" points="1373 463.5 1298.7 496.3 1309.1 414.8 1373 463.5"/><polygon class="v" points="1628.8 448.1 1554.4 480.9 1564.9 399.3 1628.8 448.1"/><polygon class="j" points="1205.1 445.4 1130.7 478.2 1141.1 396.7 1205.1 445.4"/><polygon class="v" points="1101.8 409.8 1133.2 395.9 1128.8 430.3 1101.8 409.8"/><polygon class="v" points="1447 357.6 1478.5 343.8 1474.1 378.3 1447 357.6"/><polygon class="v" points="1441.2 402.9 1472.7 389.1 1468.3 423.5 1441.2 402.9"/><polygon class="v" points="1401.7 376.5 1433.2 362.7 1428.8 397.1 1401.7 376.5"/><polygon class="v" points="1300 501.9 1331.4 488.2 1327 522.6 1300 501.9"/><polygon class="v" points="1346.9 482.5 1378.3 468.7 1373.9 503.1 1346.9 482.5"/><polygon class="v" points="1341 528.6 1372.4 514.7 1368 549.2 1341 528.6"/><polygon class="v" points="1133.9 483.6 1165.5 469.7 1161 504.2 1133.9 483.6"/><polygon class="v" points="1180 464.8 1211.5 450.9 1207.1 485.4 1180 464.8"/><polygon class="v" points="1174.2 510.1 1205.7 496.2 1201.3 530.7 1174.2 510.1"/><polygon class="v" points="1481.7 430 1513.2 416.1 1508.8 450.6 1481.7 430"/><polygon class="v" points="1518.4 457.9 1549.8 444 1545.4 478.4 1518.4 457.9"/><polygon class="v" points="1573.7 347.6 1605.2 333.8 1600.8 368.2 1573.7 347.6"/><polygon class="v" points="1602.9 467.1 1634.4 453.3 1630 487.7 1602.9 467.1"/><polygon class="v" points="1468.3 383 1436.8 396.9 1441.3 362.5 1468.3 383"/><polygon class="k" points="1202.1 490.3 1170.7 504.1 1175.1 469.7 1202.1 490.3"/><polygon class="v" points="1312 617.6 1280.6 631.5 1285 597 1312 617.6"/><polygon class="m" points="1548.5 438.5 1517.1 452.4 1521.5 418 1548.5 438.5"/><polygon class="v" points="1599 375 1567.5 388.9 1571.9 354.4 1599 375"/></g></g></g><g class="o"><g><g><polygon class="j" points="1598.6 774.5 1566.5 788.8 1571 753.5 1598.6 774.5"/><polygon class="t" points="1570.3 712 1538.1 726.1 1542.6 690.9 1570.3 712"/><polygon class="v" points="1536.5 687.9 1504.4 702.1 1508.9 666.8 1536.5 687.9"/><polygon class="k" points="1608.6 696.4 1576.5 710.6 1581 675.4 1608.6 696.4"/><polygon class="v" points="1652.5 640.9 1620.3 655 1624.8 619.8 1652.5 640.9"/><polygon class="v" points="1491.3 742.7 1459.2 756.8 1463.7 721.6 1491.3 742.7"/><polygon class="v" points="1544.3 689 1576.4 674.9 1571.9 710.1 1544.3 689"/><polygon class="v" points="1511.4 664.7 1543.5 650.5 1539 685.8 1511.4 664.7"/><polygon class="m" points="1507 704.6 1539.1 690.4 1534.6 725.7 1507 704.6"/><polygon class="v" points="1433.7 695.7 1465.9 681.6 1461.4 716.8 1433.7 695.7"/><polygon class="j" points="1467.3 719.6 1499.4 705.4 1494.9 740.6 1467.3 719.6"/><polygon class="v" points="1482.1 602.2 1514.2 588 1509.7 623.3 1482.1 602.2"/><polygon class="m" points="1616.9 696.8 1649 682.7 1644.5 717.9 1616.9 696.8"/><polygon class="t" points="1500.9 743.5 1571.7 713.8 1562.1 788.4 1500.9 743.5"/><polygon class="m" points="1549.6 649.8 1620.4 620.1 1610.9 694.7 1549.6 649.8"/><polygon class="k" points="1579.3 633 1508.5 662.7 1518.1 588.1 1579.3 633"/><polygon class="v" points="1661.5 712.3 1647.9 718.2 1649.9 703.3 1661.5 712.3"/><polygon class="v" points="1512.3 734.8 1498.7 740.8 1500.6 725.9 1512.3 734.8"/><polygon class="v" points="1514.8 715.2 1501.2 721.2 1503.1 706.3 1514.8 715.2"/><polygon class="v" points="1531.9 726.6 1518.3 732.6 1520.2 717.7 1531.9 726.6"/><polygon class="v" points="1575.9 672.4 1562.3 678.4 1564.2 663.5 1575.9 672.4"/><polygon class="v" points="1555.6 680.8 1542 686.8 1543.9 671.9 1555.6 680.8"/><polygon class="v" points="1558.2 660.9 1544.5 666.9 1546.4 652 1558.2 660.9"/><polygon class="v" points="1647.6 680.4 1634 686.3 1635.9 671.4 1647.6 680.4"/><polygon class="v" points="1627.7 688.5 1614.1 694.5 1616 679.6 1627.7 688.5"/><polygon class="v" points="1630.2 668.9 1616.6 674.9 1618.5 660 1630.2 668.9"/><polygon class="v" points="1497.3 703.5 1483.7 709.5 1485.6 694.6 1497.3 703.5"/><polygon class="v" points="1479 711 1465.4 716.9 1467.3 702.1 1479 711"/><polygon class="v" points="1481.5 691.5 1467.9 697.4 1469.8 682.6 1481.5 691.5"/><polygon class="v" points="1457.5 739.1 1443.9 745.1 1445.8 730.2 1457.5 739.1"/><polygon class="v" points="1444.9 687.5 1431.4 693.5 1433.3 678.6 1444.9 687.5"/><polygon class="k" points="1503.1 723.8 1516.7 717.8 1514.8 732.7 1503.1 723.8"/><polygon class="v" points="1546.9 668.5 1560.5 662.6 1558.6 677.5 1546.9 668.5"/><polygon class="v" points="1618.1 677.4 1631.7 671.5 1629.8 686.4 1618.1 677.4"/><polygon class="v" points="1570.6 622.4 1584.2 616.4 1582.3 631.3 1570.6 622.4"/><polygon class="v" points="1468.4 699.8 1482 693.8 1480.1 708.7 1468.4 699.8"/><polygon class="v" points="1496.5 631.1 1510 625.1 1508.1 640 1496.5 631.1"/><polygon class="m" points="1446.6 727.3 1460.2 721.3 1458.3 736.2 1446.6 727.3"/></g><g><polygon class="v" points="1504.1 662.9 1471.9 677 1476.4 641.8 1504.1 662.9"/><polygon class="v" points="1475.7 600.3 1443.6 614.4 1448.1 579.2 1475.7 600.3"/><polygon class="v" points="1442 576.2 1409.8 590.3 1414.3 555.1 1442 576.2"/><polygon class="v" points="1514.1 584.7 1481.9 598.9 1486.4 563.7 1514.1 584.7"/><polygon class="k" points="1449.7 577.3 1481.8 563.2 1477.3 598.4 1449.7 577.3"/><polygon class="v" points="1339.2 584 1371.3 569.8 1366.8 605 1339.2 584"/><polygon class="j" points="1522.3 585.2 1554.4 571 1549.9 606.2 1522.3 585.2"/><polygon class="v" points="1566.9 600.5 1553.3 606.6 1555.2 591.6 1566.9 600.5"/><polygon class="v" points="1417.7 623.1 1404.1 629.1 1406 614.2 1417.7 623.1"/><polygon class="v" points="1420.2 603.5 1406.6 609.5 1408.5 594.6 1420.2 603.5"/><polygon class="v" points="1437.3 614.9 1423.7 620.9 1425.6 606 1437.3 614.9"/><polygon class="v" points="1481.3 560.7 1467.7 566.7 1469.6 551.8 1481.3 560.7"/><polygon class="v" points="1461 569.1 1447.4 575.1 1449.3 560.2 1461 569.1"/><polygon class="v" points="1463.5 549.2 1449.9 555.2 1451.8 540.3 1463.5 549.2"/><polygon class="v" points="1553 568.6 1539.4 574.6 1541.3 559.7 1553 568.6"/><polygon class="v" points="1533.1 576.8 1519.5 582.8 1521.4 567.9 1533.1 576.8"/><polygon class="v" points="1535.6 557.2 1522 563.1 1523.9 548.2 1535.6 557.2"/><polygon class="v" points="1402.7 591.8 1389.1 597.8 1391 582.9 1402.7 591.8"/><polygon class="v" points="1386.9 579.8 1373.3 585.8 1375.2 570.8 1386.9 579.8"/><polygon class="v" points="1362.9 627.4 1349.3 633.4 1351.2 618.5 1362.9 627.4"/><polygon class="v" points="1350.3 575.8 1336.7 581.7 1338.7 566.9 1350.3 575.8"/><polygon class="v" points="1408.5 612.1 1422.1 606.1 1420.2 621 1408.5 612.1"/><polygon class="k" points="1523.6 565.7 1537.2 559.8 1535.2 574.6 1523.6 565.7"/><polygon class="v" points="1476.1 510.7 1489.7 504.7 1487.8 519.6 1476.1 510.7"/><polygon class="m" points="1373.8 588.1 1387.4 582.1 1385.5 597 1373.8 588.1"/><polygon class="v" points="1401.9 519.4 1415.4 513.4 1413.5 528.3 1401.9 519.4"/><polygon class="v" points="1352 615.5 1365.7 609.6 1363.7 624.5 1352 615.5"/></g></g></g></g></g></g></svg>